Coordinates
nRows=8
nColumns=38

# SIMM Motion File Header:
name Coordinates
datacolumns 38
datarows 8
otherdata 1
range 1.59030000000000000000 1.59729999999999990000

Units are S.I. units (second, meters, Newtons, ...)
Angles are in degrees.

endheader
time	pelvis_tilt	pelvis_list	pelvis_rotation	pelvis_tx	pelvis_ty	pelvis_tz	hip_flexion_r	hip_adduction_r	hip_rotation_r	knee_angle_r	ankle_angle_r	subtalar_angle_r	mtp_angle_r	hip_flexion_l	hip_adduction_l	hip_rotation_l	knee_angle_l	ankle_angle_l	subtalar_angle_l	mtp_angle_l	lumbar_extension	lumbar_bending	lumbar_rotation	arm_flex_r	arm_add_r	arm_rot_r	elbow_flex_r	pro_sup_r	wrist_flex_r	wrist_dev_r	arm_flex_l	arm_add_l	arm_rot_l	elbow_flex_l	pro_sup_l	wrist_flex_l	wrist_dev_l
      1.59030000000000000000	     -2.50112266167347650000	     -0.18503638370149791000	     -5.08923653835016940000	      0.82365271576266097000	      0.98750516384419940000	     -0.33368565964397084000	    -22.82370176612124300000	     -1.38675800679480350000	      0.51209282725786376000	    -64.04353941247912000000	    -19.76480280988989700000	     -0.00000000000002855101	      0.00000000000007189214	     33.66904125470616500000	      1.07036431945146290000	     -4.68277275155481210000	    -14.57705091218421400000	      1.72206388975264550000	     -0.00000000000000550729	      0.00000000000000062697	     -9.11986184433787810000	     -1.42029200991857560000	     12.29921159852348600000	     12.20836377162013700000	    -34.56756969368049700000	     30.38056025358233800000	    133.77809049584343000000	     68.36059776477652900000	     -0.00000000000000414514	      0.00000000000000185974	    -61.29943822921074300000	    -29.72069529592376500000	    -53.71713121685451900000	    131.49735428850056000000	     74.75343599640113700000	      0.00000000000002623953	     -0.00000000000000507253
      1.59129999999999990000	     -2.43012825221927640000	     -0.24805358448576578000	     -4.97718051331125010000	      0.82360116860361066000	      0.98715900334064377000	     -0.33359254863314547000	    -22.71067389413710200000	     -1.23607717614380990000	      0.54598172589681915000	    -64.90587997013564300000	    -19.60148423431308700000	     -0.00000000000002857190	      0.00000000000007224350	     33.44248907621997800000	      1.08977022499410750000	     -4.65617807246620520000	    -14.32252412895949900000	      1.70332083216955740000	     -0.00000000000000553086	      0.00000000000000058625	     -9.23459653949852570000	     -1.41060463297287650000	     12.14914554829366700000	     11.98847231221260900000	    -34.57563306974251600000	     30.29391450416519800000	    133.65935537569504000000	     68.19462561966601300000	     -0.00000000000000416270	      0.00000000000000193500	    -61.27932155350198700000	    -29.78195906052215100000	    -54.00598302492249300000	    131.65932104919182000000	     74.77979953406892800000	      0.00000000000002634893	     -0.00000000000000508125
      1.59230000000000000000	     -2.35952344917379620000	     -0.30792354091775237000	     -4.86384594884804140000	      0.82354596755901421000	      0.98680392959246976000	     -0.33350218843701845000	    -22.59512634620626100000	     -1.08923211693786890000	      0.57167822869348184000	    -65.76801432331218700000	    -19.43179978711331700000	     -0.00000000000002859495	      0.00000000000007260095	     33.21849272829156500000	      1.11197132567847330000	     -4.62797780222730190000	    -14.08054567988539500000	      1.67862827222287940000	     -0.00000000000000555248	      0.00000000000000054464	     -9.34911074547142110000	     -1.40366564171394280000	     11.99795507445820600000	     11.76369704243068900000	    -34.58235995677888000000	     30.20135891225341500000	    133.53676400423697000000	     68.03712644095600100000	     -0.00000000000000418356	      0.00000000000000200780	    -61.25512970349026900000	    -29.84800488747385600000	    -54.29236795668460800000	    131.81995676024334000000	     74.81203218144750600000	      0.00000000000002645678	     -0.00000000000000508908
      1.59329999999999990000	     -2.28936198704454390000	     -0.36464204835369790000	     -4.74917539595095480000	      0.82348728868631282000	      0.98643995101387894000	     -0.33341486727289910000	    -22.47708525644576500000	     -0.94633831119277501000	      0.58920149414040712000	    -66.62970788127215400000	    -19.25577599849064100000	     -0.00000000000002862286	      0.00000000000007296357	     32.99705955672120400000	      1.13704195473458850000	     -4.59792025618834810000	    -13.85104464048274100000	      1.64755447182511010000	     -0.00000000000000557147	      0.00000000000000050368	     -9.46332653723301040000	     -1.39940483066405390000	     11.84563025134678100000	     11.53396924954221300000	    -34.58771373770563400000	     30.10285894273575000000	    133.41034348964382000000	     67.88821799680377500000	     -0.00000000000000420650	      0.00000000000000208354	    -61.22681476679996100000	    -29.91891767943056700000	    -54.57615843385751500000	    131.97919647377424000000	     74.84995570369451900000	      0.00000000000002656408	     -0.00000000000000509707
      1.59430000000000010000	     -2.21971663313771290000	     -0.41820449755326444000	     -4.63317511837278230000	      0.82342528214623878000	      0.98606705709818365000	     -0.33333078498700702000	    -22.35653284828178800000	     -0.80753022648837081000	      0.59863735500292292000	    -67.49076438746928400000	    -19.07345173951825100000	     -0.00000000000002865454	      0.00000000000007332755	     32.77821809616331400000	      1.16501947648669550000	     -4.56582728974925180000	    -13.63396285744807900000	      1.60960711524936410000	     -0.00000000000000558806	      0.00000000000000046233	     -9.57714520098830310000	     -1.39776006567942050000	     11.69222093557984700000	     11.29922244894827400000	    -34.59165600621501100000	     29.99838563794358100000	    133.28011685418426000000	     67.74800133524580300000	     -0.00000000000000423015	      0.00000000000000215984	    -61.19432649818793400000	    -29.99477260995225700000	    -54.85722504701903500000	    132.13697158096093000000	     74.89337798718287300000	      0.00000000000002667190	     -0.00000000000000510417
      1.59529999999999990000	     -2.15067321179602320000	     -0.46861730122409545000	     -4.51584487528216890000	      0.82336008831393703000	      0.98568521233830197000	     -0.33325014661400904000	    -22.23343481191944400000	     -0.67292347286683829000	      0.60007760440922031000	    -68.35099707198487800000	    -18.88488813562571500000	     -0.00000000000002868673	      0.00000000000007369237	     32.56202449940527500000	      1.19593429356510740000	     -4.53151888979382190000	    -13.42927502412037700000	      1.56436661525796870000	     -0.00000000000000560496	      0.00000000000000042231	     -9.69045552506134730000	     -1.39865696006169780000	     11.53776918965301100000	     11.05939417506630600000	    -34.59414621678676800000	     29.88791559862125900000	    133.14610499802311000000	     67.61655854808591900000	     -0.00000000000000425376	      0.00000000000000223620	    -61.15761726830587700000	    -30.07563840370649200000	    -55.13544165190155900000	    132.29321316618598000000	     74.94208891545061100000	      0.00000000000002678040	     -0.00000000000000511052
      1.59630000000000010000	     -2.08232596636194330000	     -0.51589627944994942000	     -4.39718364120825280000	      0.82329183481879498000	      0.98529436571304796000	     -0.33317315471478726000	    -22.10774344338851800000	     -0.54261921141520353000	      0.59362372490220972000	    -69.21023018199997500000	    -18.69016773391051300000	     -0.00000000000002871834	      0.00000000000007405871	     32.34855679412107300000	      1.22980811230298470000	     -4.49482239656674750000	    -13.23698657290769500000	      1.51145897684765010000	     -0.00000000000000562535	      0.00000000000000038329	     -9.80313921198319170000	     -1.40201189759349810000	     11.38231471788597000000	     10.81442775086181000000	    -34.59514224882558200000	     29.77143108871506200000	    133.00832652333617000000	     67.49395272537334700000	     -0.00000000000000427923	      0.00000000000000231290	    -61.11663972320187100000	    -30.16157776113399800000	    -55.41068434522502200000	    132.44785177398740000000	     74.99586196761885000000	      0.00000000000002688933	     -0.00000000000000511589
      1.59729999999999990000	     -2.01477314383724650000	     -0.56006500924471270000	     -4.27719191987027880000	      0.82322063604461515000	      0.98489445775548734000	     -0.33310000605325385000	    -21.97940203508675000000	     -0.41670715019359034000	      0.57938755168459488000	    -70.06829892683232700000	    -18.48939392822395800000	     -0.00000000000002874754	      0.00000000000007442280	     32.13790950947774400000	      1.26665464152745820000	     -4.45557574437953100000	    -13.05713242099039900000	      1.45056860966908930000	     -0.00000000000000564610	      0.00000000000000034505	     -9.91507582372802250000	     -1.40773473538857190000	     11.22589696142434200000	     10.56427373291568200000	    -34.59460077149447700000	     29.64892007475480500000	    132.86679780236045000000	     67.38022782956723200000	     -0.00000000000000430659	      0.00000000000000239039	    -61.07134557478114800000	    -30.25264787048569200000	    -55.68283113918548800000	    132.60081755498493000000	     75.05445525796226000000	      0.00000000000002699878	     -0.00000000000000511975
